<svg width="28" height="25" viewBox="0 0 28 25" fill="none" xmlns="http://www.w3.org/2000/svg">
<path d="M8.01547 0H4.00774V4.00774H8.01547V0Z" fill="#F14D9C"/>
<path d="M11.9961 0H7.98839V4.00774H11.9961V0Z" fill="#F14D9C"/>
<path d="M20.0116 0H16.0039V4.00774H20.0116V0Z" fill="#F14D9C"/>
<path d="M24.0193 0H20.0116V4.00774H24.0193V0Z" fill="#F14D9C"/>
<path d="M4.00774 4.00774H0V8.01547H4.00774V4.00774Z" fill="#F14D9C"/>
<path d="M8.01547 4.00774H4.00774V8.01547H8.01547V4.00774Z" fill="#F14D9C"/>
<path d="M11.9961 4.00774H7.98839V8.01547H11.9961V4.00774Z" fill="#F14D9C"/>
<path d="M16.0039 4.00774H11.9961V8.01547H16.0039V4.00774Z" fill="#F14D9C"/>
<path d="M20.0116 4.00774H16.0039V8.01547H20.0116V4.00774Z" fill="#F14D9C"/>
<path d="M24.0193 4.00774H20.0116V8.01547H24.0193V4.00774Z" fill="#F14D9C"/>
<path d="M28 4.00774H23.9923V8.01547H28V4.00774Z" fill="#F14D9C"/>
<path d="M4.00774 7.98839H0V11.9961H4.00774V7.98839Z" fill="#F14D9C"/>
<path d="M8.01547 7.98839H4.00774V11.9961H8.01547V7.98839Z" fill="#F14D9C"/>
<path d="M11.9961 7.98839H7.98839V11.9961H11.9961V7.98839Z" fill="#F14D9C"/>
<path d="M16.0039 7.98839H11.9961V11.9961H16.0039V7.98839Z" fill="#F14D9C"/>
<path d="M20.0116 7.98839H16.0039V11.9961H20.0116V7.98839Z" fill="#F14D9C"/>
<path d="M24.0193 7.98839H20.0116V11.9961H24.0193V7.98839Z" fill="#F14D9C"/>
<path d="M28 7.98839H23.9923V11.9961H28V7.98839Z" fill="#F14D9C"/>
<path d="M8.01547 11.9961H4.00774V16.0039H8.01547V11.9961Z" fill="#F14D9C"/>
<path d="M11.9961 11.9961H7.98839V16.0039H11.9961V11.9961Z" fill="#F14D9C"/>
<path d="M16.0039 11.9961H11.9961V16.0039H16.0039V11.9961Z" fill="#F14D9C"/>
<path d="M20.0116 11.9961H16.0039V16.0039H20.0116V11.9961Z" fill="#F14D9C"/>
<path d="M24.0193 11.9961H20.0116V16.0039H24.0193V11.9961Z" fill="#F14D9C"/>
<path d="M11.9961 16.0039H7.98839V20.0116H11.9961V16.0039Z" fill="#F14D9C"/>
<path d="M16.0039 16.0039H11.9961V20.0116H16.0039V16.0039Z" fill="#F14D9C"/>
<path d="M20.0116 16.0039H16.0039V20.0116H20.0116V16.0039Z" fill="#F14D9C"/>
<path d="M16.0039 20.0116H11.9961V24.0193H16.0039V20.0116Z" fill="#F14D9C"/>
</svg>
