<?xml version="1.0" standalone="no"?>
<!DOCTYPE svg PUBLIC "-//W3C//DTD SVG 20010904//EN"
 "http://www.w3.org/TR/2001/REC-SVG-20010904/DTD/svg10.dtd">
<svg version="1.0" xmlns="http://www.w3.org/2000/svg"
 width="94.000000pt" height="94.000000pt" viewBox="0 0 94.000000 94.000000"
 preserveAspectRatio="xMidYMid meet">
<metadata>
Created by potrace 1.14, written by Peter Selinger 2001-2017
</metadata>
<g transform="translate(0.000000,94.000000) scale(0.100000,-0.100000)"
fill="#000000" stroke="none">
<path d="M261 801 c-38 -24 37 -52 89 -33 21 8 21 9 5 25 -17 18 -71 22 -94 8z"/>
<path d="M606 802 c-16 -2 -40 -11 -53 -19 -12 -8 -23 -12 -23 -9 0 4 -11 -1
-25 -10 -23 -15 -27 -15 -59 5 -32 20 -35 21 -44 5 -10 -18 6 -44 27 -44 6 0
11 -9 11 -20 0 -11 -4 -20 -8 -20 -10 0 -37 -50 -34 -62 1 -5 -3 -8 -9 -8 -5
0 -8 -4 -4 -9 3 -5 1 -12 -5 -16 -6 -4 -8 -11 -5 -16 4 -5 2 -9 -3 -9 -6 0
-10 -10 -11 -22 0 -13 -2 -43 -4 -68 -2 -25 -1 -49 2 -55 2 -5 5 -21 6 -35 1
-31 26 -100 37 -100 4 0 8 -9 8 -20 0 -11 4 -20 9 -20 23 0 20 -35 -4 -57 -41
-38 -10 -60 40 -27 20 13 27 13 47 3 36 -21 91 -38 100 -33 4 3 8 2 8 -3 0 -4
20 -9 45 -10 25 0 45 3 45 9 0 5 4 6 10 3 5 -3 23 1 40 10 16 8 32 14 34 13 7
-5 96 89 96 101 0 6 5 11 10 11 6 0 10 9 10 19 0 11 4 21 10 23 5 2 11 12 13
23 1 11 6 25 10 31 3 6 5 56 4 110 -3 105 -17 146 -74 223 -29 37 -108 91
-135 91 -10 0 -18 3 -18 8 0 7 -54 10 -104 4z m127 -63 c9 -6 17 -7 17 -4 0 8
23 -12 65 -54 35 -35 66 -89 73 -126 5 -26 10 -49 12 -55 1 -3 1 -9 0 -15 -1
-5 -4 -33 -5 -62 -2 -28 -13 -71 -25 -95 -24 -51 -79 -113 -109 -123 -12 -3
-21 -10 -21 -14 0 -9 -7 -10 -80 -15 -30 -1 -61 1 -67 7 -7 5 -13 6 -13 2 0
-4 -7 -2 -15 5 -8 7 -15 10 -15 6 0 -6 -25 14 -69 55 -33 31 -72 112 -77 158
-2 18 -6 36 -9 39 -2 3 0 11 6 19 8 8 8 13 1 13 -6 0 -5 19 5 53 23 82 25 87
35 87 5 0 7 4 4 9 -8 12 70 88 108 106 53 24 136 26 179 4z"/>
<path d="M521 681 c-15 -10 -6 -71 10 -71 6 0 7 -4 4 -10 -3 -5 -1 -10 5 -10
6 0 8 -4 5 -10 -3 -5 3 -10 15 -10 16 0 20 6 18 30 -1 16 -4 27 -7 25 -2 -3
-11 11 -20 30 -12 25 -20 32 -30 26z"/>
<path d="M566 511 c-8 -29 -3 -96 8 -103 16 -11 23 -10 24 5 0 6 3 29 5 50 2
21 0 40 -5 43 -4 3 -6 9 -4 13 3 4 -1 8 -9 8 -8 0 -17 -7 -19 -16z"/>
<path d="M546 353 c-11 -11 -36 -73 -36 -89 0 -23 26 -16 44 11 24 37 32 85
14 85 -8 0 -18 -3 -22 -7z"/>
<path d="M160 765 c-19 -14 -35 -30 -34 -35 3 -26 5 -30 19 -30 9 0 18 7 21
15 4 8 12 15 19 15 7 0 18 7 25 16 11 12 11 18 -1 30 -13 12 -19 11 -49 -11z"/>
<path d="M71 668 c-22 -23 -47 -86 -38 -95 7 -7 47 6 45 15 -3 12 13 52 21 52
4 0 8 7 8 15 0 8 -4 15 -9 15 -5 0 -6 5 -3 10 11 18 -4 11 -24 -12z"/>
<path d="M16 514 c-12 -32 -6 -102 9 -108 20 -7 29 15 23 54 -3 17 -1 30 4 30
5 0 4 9 -2 20 -13 24 -26 26 -34 4z"/>
<path d="M35 350 c-9 -15 32 -100 49 -100 24 0 24 22 2 67 -20 41 -39 53 -51
33z"/>
<path d="M120 215 c0 -24 51 -66 74 -63 31 4 26 24 -13 53 -40 29 -61 32 -61
10z"/>
<path d="M259 167 c-1 -1 -3 -11 -4 -23 -2 -18 4 -21 44 -23 36 -1 49 2 58 18
10 17 10 21 -5 24 -17 5 -91 8 -93 4z"/>
</g>
</svg>
